 <svg version="1.0" xmlns="http://www.w3.org/2000/svg" width="700.000000pt" height="335.000000pt" viewBox="0 0 700.000000 335.000000" preserveAspectRatio="xMidYMid meet">
<metadata>
Created by potrace 1.12, written by Peter Selinger 2001-2015
</metadata>
<g transform="translate(0.000000,335.000000) scale(0.100000,-0.100000)" fill="#000000" stroke="none">
<path d="M10 1670 l0 -1670 3495 0 3495 0 0 1670 0 1670 -3495 0 -3495 0 0
-1670z m1677 781 c45 -23 84 -64 101 -107 15 -39 272 -1265 272 -1300 0 -73
-62 -162 -135 -195 -73 -34 -132 -26 -242 32 -54 28 -150 78 -213 111 -63 34
-133 71 -155 83 -22 12 -82 44 -133 70 l-92 47 -357 -188 c-380 -200 -408
-210 -488 -184 -43 14 -110 71 -129 109 -36 69 -30 108 114 776 11 50 44 209
74 354 63 300 73 323 159 366 66 32 136 33 197 3 36 -19 79 -65 220 -242 96
-120 178 -219 181 -220 4 -1 91 104 194 232 166 208 192 236 238 258 62 30
131 28 194 -5z m1209 -691 c236 -636 246 -660 268 -676 13 -9 45 -14 88 -14
37 0 70 -4 73 -10 4 -7 -105 -10 -319 -10 -211 0 -326 4 -326 10 0 6 35 10 85
10 95 0 135 13 135 44 0 12 -24 89 -53 171 l-53 150 -166 3 -166 2 -36 -107
c-37 -111 -44 -169 -25 -205 14 -26 85 -58 131 -58 20 0 40 -5 43 -10 4 -7
-72 -10 -219 -10 -144 0 -226 4 -226 10 0 6 14 10 30 10 69 0 153 70 192 159
19 45 294 796 343 939 3 7 14 12 26 10 17 -3 44 -66 175 -418z m1872 -119 c2
-413 5 -537 15 -543 6 -4 42 -10 80 -14 37 -4 67 -10 67 -14 0 -4 -55 -12
-122 -19 -68 -6 -142 -14 -165 -17 l-43 -6 -1 93 -1 94 -14 -40 c-30 -86 -102
-145 -177 -145 -149 0 -261 118 -288 304 -21 140 15 258 109 358 57 61 108 88
178 95 91 10 134 -22 175 -125 l18 -47 0 235 c1 129 -3 241 -8 249 -10 16 -89
29 -180 30 -101 2 -40 16 137 32 97 9 186 16 197 15 20 -1 20 -9 23 -535z
m519 500 c13 -19 23 -44 23 -56 0 -12 -10 -37 -23 -56 -20 -30 -28 -34 -73
-37 -66 -4 -99 27 -99 93 0 66 33 97 99 93 45 -3 53 -7 73 -37z m764 16 c40
-27 59 -60 59 -105 0 -44 -14 -68 -51 -88 -39 -20 -82 -11 -109 23 -34 43 -23
100 25 125 21 12 22 15 9 33 -22 30 -88 25 -123 -9 -26 -26 -26 -28 -29 -196
l-4 -170 81 0 c47 0 81 -4 81 -10 0 -6 -33 -10 -80 -10 l-80 0 0 -330 c0 -378
-8 -350 99 -350 34 0 61 -4 61 -10 0 -6 -88 -10 -245 -10 -157 0 -245 4 -245
10 0 6 28 10 64 10 102 0 96 -21 96 356 l0 324 -80 0 c-103 0 -105 18 -2 22
l77 3 5 90 c8 138 67 241 168 295 56 29 177 28 223 -3z m-2331 -377 c0 -5 -24
-10 -54 -10 -30 0 -57 -4 -61 -9 -3 -6 26 -92 64 -193 96 -251 106 -276 112
-282 6 -6 139 387 139 412 0 34 -32 63 -78 69 -87 12 -37 23 103 23 138 0 187
-11 108 -23 -82 -14 -90 -30 -274 -572 -66 -192 -132 -378 -148 -412 -37 -77
-67 -98 -141 -98 -101 1 -140 33 -140 115 0 52 8 68 41 85 60 32 114 8 128
-56 10 -45 -8 -94 -40 -104 -20 -7 -20 -8 -5 -17 43 -24 109 21 141 97 26 61
75 207 75 223 0 19 -249 692 -266 720 -11 17 -24 22 -54 22 -21 0 -42 5 -45
10 -4 7 63 10 194 10 127 0 201 -4 201 -10z m1580 -340 c0 -402 -9 -370 104
-370 37 0 66 -4 66 -10 0 -6 -92 -10 -256 -10 -167 0 -253 3 -249 10 3 6 30
10 60 10 30 0 65 4 79 10 l26 10 0 309 c0 272 -2 310 -16 322 -9 7 -47 15 -85
17 -38 3 -69 8 -69 13 0 5 8 9 18 10 9 1 71 7 137 14 66 6 135 13 153 13 l32
2 0 -350z m1220 340 c0 -5 -25 -10 -55 -10 -49 0 -55 -2 -55 -20 0 -22 171
-473 177 -467 1 2 32 89 68 193 62 180 74 235 57 260 -11 18 -48 34 -76 34
-14 0 -26 5 -26 10 0 6 55 10 145 10 90 0 145 -4 145 -10 0 -5 -12 -10 -27
-10 -42 0 -90 -34 -114 -81 -26 -53 -25 -50 -173 -484 -161 -473 -166 -483
-235 -512 -45 -19 -134 -8 -168 22 -21 17 -27 33 -31 77 -4 51 -2 56 28 81 39
34 80 35 117 3 23 -20 28 -32 28 -71 0 -39 -5 -50 -28 -69 -44 -35 -4 -51 53
-21 36 19 66 74 114 212 l35 102 -135 363 c-75 199 -141 366 -147 370 -7 4
-29 8 -49 8 -21 0 -38 5 -38 10 0 6 72 10 195 10 123 0 195 -4 195 -10z"></path>
<path d="M2582 1767 c-24 -67 -58 -162 -76 -212 l-33 -90 150 -3 c82 -1 151
-1 153 1 4 3 -141 416 -148 422 -2 2 -22 -51 -46 -118z"></path>
<path d="M4379 1755 c-61 -33 -83 -146 -77 -398 4 -155 7 -189 25 -227 24 -54
41 -69 85 -76 48 -7 90 23 122 88 87 177 68 530 -32 608 -29 23 -85 26 -123 5z"></path>
</g>
</svg>